# xmcd
#
# Track frame offsets: 
#        150
#        23656
#        48212
#        85611
#        107698
#        132372
#        160451
#        182082
#        194686
#        212083
#        242917
#        285541
#        304377
#
# Disc length: 4285 seconds
#
# Revision: 3
# Processed by: cddbd v1.5.2PL0 Copyright (c) Steve Scherf et al.
# Submitted via: ExactAudioCopy v1.3
#
DISCID=b610bb0d
DTITLE=Chemical Brothers - Dig Your Own Hole
DYEAR=1997
DGENRE=Electronic
TTITLE0=Block rockin beats
TTITLE1=Dig your own hole
TTITLE2=Elektrobank
TTITLE3=Piku
TTITLE4=Setting sun
TTITLE5=It doesn't matter
TTITLE6=Don't stop the rock
TTITLE7=Get up on it like this
TTITLE8=Lost in the k-hole
TTITLE9=Where do i begin
TTITLE10=The private psychedelic reel
TTITLE11=Buzz tracks
TTITLE12=Leave home
EXTD=
EXTT0=
EXTT1=
EXTT2=
EXTT3=
EXTT4=
EXTT5=
EXTT6=
EXTT7=
EXTT8=
EXTT9=
EXTT10=
EXTT11=
EXTT12=
PLAYORDER=
